<svg width="425" height="436" viewBox="0 0 425 436" fill="none" xmlns="http://www.w3.org/2000/svg">
<path d="M384.11 309.192C377.51 303.092 367.81 301.592 359.51 300.192C348.01 298.292 343.61 296.192 336.91 290.192C322.61 277.492 322.61 259.092 336.91 246.392L367.21 219.492C413.61 178.492 413.61 111.292 367.21 70.2925C333.01 40.1925 287.11 25.2925 239.41 25.2925C183.71 25.2925 125.51 45.5925 80.6101 85.3925C-2.88989 159.192 -2.88989 280.092 80.6101 353.892C122.11 390.592 178.11 408.892 233.51 409.292H235.21C290.61 409.292 345.21 391.392 384.01 356.892C398.41 344.192 396 320.292 384.11 309.192V309.192Z" stroke="#202124" stroke-width="32" stroke-miterlimit="10"/>
<path d="M98 201.292C115.673 201.292 130 186.966 130 169.292C130 151.619 115.673 137.292 98 137.292C80.3269 137.292 66 151.619 66 169.292C66 186.966 80.3269 201.292 98 201.292Z" fill="#202124"/>
<path d="M106 304.292C123.673 304.292 138 289.966 138 272.292C138 254.619 123.673 240.292 106 240.292C88.3269 240.292 74 254.619 74 272.292C74 289.966 88.3269 304.292 106 304.292Z" fill="#202124"/>
<path d="M178 137.292C195.673 137.292 210 122.966 210 105.292C210 87.6194 195.673 73.2925 178 73.2925C160.327 73.2925 146 87.6194 146 105.292C146 122.966 160.327 137.292 178 137.292Z" fill="#202124"/>
<path d="M210 376.292C236.51 376.292 258 354.802 258 328.292C258 301.783 236.51 280.292 210 280.292C183.49 280.292 162 301.783 162 328.292C162 354.802 183.49 376.292 210 376.292Z" fill="#202124"/>
<path d="M282 137.292C299.673 137.292 314 122.966 314 105.292C314 87.6194 299.673 73.2925 282 73.2925C264.327 73.2925 250 87.6194 250 105.292C250 122.966 264.327 137.292 282 137.292Z" fill="#202124"/>
</svg>
