<svg width="456" height="454" viewBox="0 0 456 454" fill="none" xmlns="http://www.w3.org/2000/svg">
<path d="M380 98H158C126.52 98 101 123.52 101 155V377C101 408.48 126.52 434 158 434H380C411.48 434 437 408.48 437 377V155C437 123.52 411.48 98 380 98Z" stroke="#202124" stroke-width="32" stroke-linejoin="round"/>
<path d="M356.224 79.6502C356.182 64.8111 351.044 44.9416 340.551 34.4487C330.058 23.9558 315.839 18.0422 301 18H85C68.0416 18.0501 51.792 24.8091 39.8005 36.8005C27.8091 48.792 21.0501 65.0416 21 82V298C21.0422 312.839 26.9558 327.058 37.4487 337.551C47.9416 348.044 62.1609 353.958 77 354H101M269 186V346M349 266H189" stroke="#202124" stroke-width="32" stroke-linecap="round" stroke-linejoin="round"/>
</svg>
