<svg width="512" height="512" viewBox="0 0 512 512" fill="none" xmlns="http://www.w3.org/2000/svg">
<path d="M456.69 421.39L362.6 327.3C385.253 297.143 397.481 260.437 397.44 222.72C397.44 126.38 319.06 48 222.72 48C126.38 48 48 126.38 48 222.72C48 319.06 126.38 397.44 222.72 397.44C260.437 397.481 297.143 385.253 327.3 362.6L421.39 456.69C426.153 460.948 432.365 463.22 438.751 463.042C445.137 462.863 451.212 460.246 455.729 455.729C460.246 451.212 462.863 445.137 463.042 438.751C463.22 432.365 460.948 426.153 456.69 421.39V421.39ZM97.92 222.72C97.92 198.037 105.239 173.908 118.953 153.385C132.666 132.862 152.157 116.866 174.961 107.42C197.765 97.974 222.858 95.5026 247.067 100.318C271.276 105.133 293.513 117.019 310.967 134.473C328.421 151.927 340.307 174.164 345.122 198.373C349.937 222.582 347.466 247.675 338.02 270.479C328.574 293.283 312.578 312.774 292.055 326.487C271.532 340.201 247.403 347.52 222.72 347.52C189.633 347.48 157.913 334.319 134.517 310.923C111.121 287.527 97.9597 255.807 97.92 222.72V222.72Z" fill="#595959"/>
</svg>
